# xmcd CD database file
#
# Track frame offsets:
#	150
#	19050
#	39750
#
# Disc length: 877 seconds
#
# Revision: 1
# Processed by: cddbd v1.5.1PL0 Copyright (c) Steve Scherf et al.
# Submitted via: CDex 1.51
#
DISCID=15036b03
DTITLE=the PeteBest - Brand-new Ground
DYEAR=2000
DGENRE=Rock
TTITLE0=Brand-new Ground
TTITLE1=Bless you
TTITLE2=Fight for your right(DUCK ROCK"red&blue"REMIX)
EXTD=YEAR: 2000
EXTT0=
EXTT1=
EXTT2=
PLAYORDER=
